<?xml version="1.0" encoding="UTF-8" standalone="no"?>
<svg width="800" height="450" viewBox="0 0 800 450" version="1.1" xmlns="http://www.w3.org/2000/svg" xmlns:xlink="http://www.w3.org/1999/xlink">
  <!-- Background gradient -->
  <defs>
    <linearGradient id="bg-gradient" x1="0%" y1="0%" x2="100%" y2="100%">
      <stop offset="0%" style="stop-color:#1e293b;stop-opacity:1" />
      <stop offset="100%" style="stop-color:#0f172a;stop-opacity:1" />
    </linearGradient>
    <linearGradient id="accent-gradient" x1="0%" y1="0%" x2="100%" y2="0%">
      <stop offset="0%" style="stop-color:#3b82f6;stop-opacity:1" />
      <stop offset="100%" style="stop-color:#8b5cf6;stop-opacity:1" />
    </linearGradient>
  </defs>
  
  <!-- Background -->
  <rect width="800" height="450" fill="url(#bg-gradient)" />
  
  <!-- Calendar outline -->
  <rect x="200" y="100" width="400" height="280" rx="12" ry="12" fill="#ffffff" fill-opacity="0.05" stroke="#ffffff" stroke-opacity="0.2" stroke-width="2" />
  
  <!-- Calendar header -->
  <rect x="200" y="100" width="400" height="60" rx="12" ry="12" fill="url(#accent-gradient)" />
  
  <!-- Calendar title -->
  <text x="400" y="140" font-family="Arial, sans-serif" font-size="24" font-weight="bold" text-anchor="middle" fill="#ffffff">CalenderAI</text>
  
  <!-- Calendar grid -->
  <g>
    <!-- Days of week -->
    <text x="240" y="190" font-family="Arial, sans-serif" font-size="12" fill="#ffffff" fill-opacity="0.8">Sun</text>
    <text x="290" y="190" font-family="Arial, sans-serif" font-size="12" fill="#ffffff" fill-opacity="0.8">Mon</text>
    <text x="340" y="190" font-family="Arial, sans-serif" font-size="12" fill="#ffffff" fill-opacity="0.8">Tue</text>
    <text x="390" y="190" font-family="Arial, sans-serif" font-size="12" fill="#ffffff" fill-opacity="0.8">Wed</text>
    <text x="440" y="190" font-family="Arial, sans-serif" font-size="12" fill="#ffffff" fill-opacity="0.8">Thu</text>
    <text x="490" y="190" font-family="Arial, sans-serif" font-size="12" fill="#ffffff" fill-opacity="0.8">Fri</text>
    <text x="540" y="190" font-family="Arial, sans-serif" font-size="12" fill="#ffffff" fill-opacity="0.8">Sat</text>
    
    <!-- Calendar days -->
    <g>
      <!-- Row 1 -->
      <rect x="230" y="210" width="40" height="40" rx="4" ry="4" fill="#ffffff" fill-opacity="0.05" />
      <text x="250" y="235" font-family="Arial, sans-serif" font-size="14" text-anchor="middle" fill="#ffffff" fill-opacity="0.6">1</text>
      
      <rect x="280" y="210" width="40" height="40" rx="4" ry="4" fill="#ffffff" fill-opacity="0.05" />
      <text x="300" y="235" font-family="Arial, sans-serif" font-size="14" text-anchor="middle" fill="#ffffff" fill-opacity="0.6">2</text>
      
      <rect x="330" y="210" width="40" height="40" rx="4" ry="4" fill="#ffffff" fill-opacity="0.05" />
      <text x="350" y="235" font-family="Arial, sans-serif" font-size="14" text-anchor="middle" fill="#ffffff" fill-opacity="0.6">3</text>
      
      <rect x="380" y="210" width="40" height="40" rx="4" ry="4" fill="#ffffff" fill-opacity="0.05" />
      <text x="400" y="235" font-family="Arial, sans-serif" font-size="14" text-anchor="middle" fill="#ffffff" fill-opacity="0.6">4</text>
      
      <rect x="430" y="210" width="40" height="40" rx="4" ry="4" fill="#ffffff" fill-opacity="0.05" />
      <text x="450" y="235" font-family="Arial, sans-serif" font-size="14" text-anchor="middle" fill="#ffffff" fill-opacity="0.6">5</text>
      
      <rect x="480" y="210" width="40" height="40" rx="4" ry="4" fill="#ffffff" fill-opacity="0.05" />
      <text x="500" y="235" font-family="Arial, sans-serif" font-size="14" text-anchor="middle" fill="#ffffff" fill-opacity="0.6">6</text>
      
      <rect x="530" y="210" width="40" height="40" rx="4" ry="4" fill="#ffffff" fill-opacity="0.05" />
      <text x="550" y="235" font-family="Arial, sans-serif" font-size="14" text-anchor="middle" fill="#ffffff" fill-opacity="0.6">7</text>
      
      <!-- Row 2 -->
      <rect x="230" y="260" width="40" height="40" rx="4" ry="4" fill="#ffffff" fill-opacity="0.05" />
      <text x="250" y="285" font-family="Arial, sans-serif" font-size="14" text-anchor="middle" fill="#ffffff" fill-opacity="0.6">8</text>
      
      <rect x="280" y="260" width="40" height="40" rx="4" ry="4" fill="#ffffff" fill-opacity="0.05" />
      <text x="300" y="285" font-family="Arial, sans-serif" font-size="14" text-anchor="middle" fill="#ffffff" fill-opacity="0.6">9</text>
      
      <rect x="330" y="260" width="40" height="40" rx="4" ry="4" fill="url(#accent-gradient)" />
      <text x="350" y="285" font-family="Arial, sans-serif" font-size="14" text-anchor="middle" fill="#ffffff">10</text>
      
      <rect x="380" y="260" width="40" height="40" rx="4" ry="4" fill="#ffffff" fill-opacity="0.05" />
      <text x="400" y="285" font-family="Arial, sans-serif" font-size="14" text-anchor="middle" fill="#ffffff" fill-opacity="0.6">11</text>
      
      <rect x="430" y="260" width="40" height="40" rx="4" ry="4" fill="#ffffff" fill-opacity="0.05" />
      <text x="450" y="285" font-family="Arial, sans-serif" font-size="14" text-anchor="middle" fill="#ffffff" fill-opacity="0.6">12</text>
      
      <rect x="480" y="260" width="40" height="40" rx="4" ry="4" fill="#ffffff" fill-opacity="0.05" />
      <text x="500" y="285" font-family="Arial, sans-serif" font-size="14" text-anchor="middle" fill="#ffffff" fill-opacity="0.6">13</text>
      
      <rect x="530" y="260" width="40" height="40" rx="4" ry="4" fill="#ffffff" fill-opacity="0.05" />
      <text x="550" y="285" font-family="Arial, sans-serif" font-size="14" text-anchor="middle" fill="#ffffff" fill-opacity="0.6">14</text>
    </g>
  </g>
  
  <!-- AI element -->
  <circle cx="640" cy="340" r="40" fill="url(#accent-gradient)" />
  <text x="640" y="350" font-family="Arial, sans-serif" font-size="28" font-weight="bold" text-anchor="middle" fill="#ffffff">AI</text>
  
  <!-- Smart Features -->
  <g>
    <rect x="500" y="320" width="120" height="25" rx="4" ry="4" fill="#ffffff" fill-opacity="0.1" />
    <text x="560" y="337" font-family="Arial, sans-serif" font-size="12" text-anchor="middle" fill="#ffffff" fill-opacity="0.8">Smart Scheduling</text>
    
    <rect x="500" y="350" width="120" height="25" rx="4" ry="4" fill="#ffffff" fill-opacity="0.1" />
    <text x="560" y="367" font-family="Arial, sans-serif" font-size="12" text-anchor="middle" fill="#ffffff" fill-opacity="0.8">AI Suggestions</text>
  </g>
  
  <!-- Title -->
  <text x="400" y="70" font-family="Arial, sans-serif" font-size="36" font-weight="bold" text-anchor="middle" fill="#ffffff">CalenderAI</text>
  <text x="400" y="390" font-family="Arial, sans-serif" font-size="18" text-anchor="middle" fill="#ffffff" fill-opacity="0.8">Smart Scheduling with AI</text>
</svg>
